<?xml version="1.0" standalone="no"?>
<!DOCTYPE svg PUBLIC "-//W3C//DTD SVG 20010904//EN"
 "http://www.w3.org/TR/2001/REC-SVG-20010904/DTD/svg10.dtd">
<svg version="1.0" xmlns="http://www.w3.org/2000/svg"
 width="300.000000pt" height="282.000000pt" viewBox="0 0 300.000000 282.000000"
 preserveAspectRatio="xMidYMid meet">
<metadata>
Created by potrace 1.10, written by Peter Selinger 2001-2011
</metadata>
<g transform="translate(0.000000,282.000000) scale(0.100000,-0.100000)"
fill="#000000" stroke="none">
<path d="M1653 2141 c-75 -28 -161 -90 -185 -134 -8 -16 -7 -17 10 -8 10 5 34
24 52 41 56 53 161 97 236 99 143 5 274 -69 335 -191 32 -63 35 -95 18 -199
l-12 -69 -41 -1 c-35 0 -38 -2 -18 -9 12 -5 22 -14 22 -20 0 -14 -80 -100 -93
-100 -5 0 -27 15 -48 34 -39 36 -119 66 -174 66 -70 0 -138 -30 -194 -86 -30
-30 -60 -54 -68 -54 -7 0 -13 -5 -13 -11 0 -6 7 -9 15 -5 13 5 13 1 -2 -27
-12 -23 -16 -52 -15 -107 3 -121 5 -131 19 -126 7 3 13 1 13 -4 0 -15 72 -91
105 -112 30 -18 30 -18 5 -18 -14 0 -38 9 -55 20 -27 18 -47 20 -193 20 -146
0 -163 -2 -169 -17 -4 -10 -11 -21 -17 -25 -6 -4 109 -8 255 -8 258 0 267 -1
272 -20 7 -26 41 -26 107 0 63 25 64 25 57 0 -3 -13 0 -20 8 -20 17 0 22 16
17 50 l-4 28 -51 -14 c-79 -21 -89 -19 -75 11 7 16 17 24 26 20 7 -3 18 -5 23
-5 6 0 7 -4 4 -10 -8 -13 6 -13 39 0 46 17 32 35 -24 32 -55 -4 -70 10 -51 47
10 17 7 23 -15 37 -22 15 -27 15 -35 3 -5 -8 -7 -21 -5 -29 17 -63 16 -87 -4
-105 -11 -10 -20 -14 -20 -8 0 6 -20 18 -45 27 -55 21 -127 98 -143 154 -26
87 -9 170 50 237 52 59 109 85 184 85 208 -1 317 -236 188 -405 -19 -26 -34
-54 -32 -63 4 -23 69 41 99 98 32 62 33 176 2 238 l-21 43 58 57 c69 70 94
136 94 252 0 133 -71 237 -202 298 -77 36 -211 42 -289 13z"/>
<path d="M1260 2001 l0 -31 -93 0 c-59 0 -97 -4 -105 -12 -7 -7 -12 -31 -12
-55 l0 -43 450 0 450 0 0 36 c0 67 -10 74 -110 74 -50 0 -90 -3 -90 -7 0 -5
28 -8 63 -7 103 1 130 -13 107 -55 -9 -17 -31 -18 -305 -18 -256 -1 -295 1
-295 14 0 13 -3 13 -15 3 -8 -7 -25 -10 -40 -6 -15 4 -25 2 -25 -4 0 -7 -28
-10 -77 -8 -67 3 -78 6 -81 22 -6 31 13 39 100 38 46 0 86 5 89 10 4 7 14 6
28 -2 15 -8 53 -9 119 -5 53 4 136 8 184 8 49 1 88 5 88 10 0 7 -150 11 -307
7 l-82 -2 -3 29 c-5 41 -38 45 -38 4z"/>
<path d="M1700 1995 c0 -26 3 -33 15 -29 9 4 15 19 15 35 0 19 -5 29 -15 29
-10 0 -15 -11 -15 -35z"/>
<path d="M2058 1890 c-14 -4 -45 -18 -67 -31 l-41 -23 0 -128 c0 -103 3 -126
14 -122 8 3 12 18 10 42 -1 20 0 41 4 47 3 5 5 42 3 82 -2 66 -1 73 21 86 40
26 67 30 74 12 6 -16 -34 -103 -64 -138 -8 -9 -12 -20 -9 -24 15 -14 88 114
102 175 7 35 2 37 -47 22z"/>
<path d="M990 1883 c-63 -24 -110 -95 -110 -167 0 -83 74 -316 101 -316 11 0
8 15 -22 98 -10 29 -19 62 -19 72 0 46 66 6 76 -45 8 -47 21 -52 29 -13 7 28
4 36 -26 60 -18 15 -51 35 -74 45 -41 17 -42 18 -44 70 -1 29 5 69 14 89 15
37 61 84 81 84 6 0 17 7 24 15 10 12 10 15 -1 14 -8 0 -21 -3 -29 -6z"/>
<path d="M1027 1833 c-3 -5 -4 -54 -2 -109 4 -138 3 -132 15 -114 12 19 13
200 1 219 -5 7 -11 9 -14 4z"/>
<path d="M1131 1803 c-1 -25 18 -41 29 -23 10 17 15 17 33 1 15 -12 17 -11 17
8 0 12 -4 20 -9 16 -5 -3 -12 -1 -16 4 -8 15 -35 2 -36 -18 -1 -9 -4 -6 -9 9
-7 23 -8 23 -9 3z"/>
<path d="M1220 1795 c0 -17 5 -25 18 -25 14 0 15 2 2 10 -13 9 -13 10 0 10 12
0 13 2 1 9 -11 7 -11 9 0 14 10 4 9 6 -3 6 -13 1 -18 -7 -18 -24z"/>
<path d="M1240 1683 c0 -8 12 -13 30 -13 17 0 30 4 30 9 0 5 -13 11 -30 13
-20 3 -30 0 -30 -9z"/>
<path d="M1470 1685 c0 -10 10 -15 30 -15 17 0 30 5 30 10 0 6 -3 10 -7 11 -5
0 -18 2 -30 5 -16 3 -23 -1 -23 -11z"/>
<path d="M1330 1610 c0 -13 5 -17 14 -14 11 4 13 0 9 -15 -5 -19 -15 -26 -36
-22 -5 1 -22 -8 -38 -20 -24 -17 -44 -21 -97 -20 -65 0 -122 -13 -122 -29 0
-5 -3 -16 -6 -25 -5 -11 3 -8 21 9 31 29 52 32 78 13 15 -10 16 -17 6 -45 -11
-31 -9 -73 6 -119 6 -18 2 -22 -25 -28 -19 -4 -36 -3 -42 3 -12 12 -15 60 -5
82 4 9 1 24 -6 34 -13 17 -14 16 -9 -14 3 -23 1 -31 -7 -26 -6 4 -11 14 -11
22 0 8 -7 14 -15 14 -19 0 -19 2 9 -61 15 -32 30 -94 37 -153 11 -87 11 -99
-3 -107 -13 -7 -14 -16 -6 -49 12 -48 32 -54 23 -7 -5 24 -4 28 4 17 6 -8 11
-25 11 -37 0 -26 6 -28 40 -8 21 12 23 14 8 20 -31 12 -32 59 -3 103 24 36 26
49 25 124 0 46 -3 102 -7 126 -8 66 1 87 46 102 21 7 44 9 50 6 6 -4 11 -1 11
7 0 29 35 47 93 47 l57 0 0 45 0 45 -55 0 c-48 0 -55 -2 -55 -20z m-180 -410
c0 -22 -4 -40 -10 -40 -5 0 -10 18 -10 40 0 22 5 40 10 40 6 0 10 -18 10 -40z"/>
<path d="M1098 1603 c-22 -6 -30 -30 -18 -54 15 -26 37 -24 44 5 3 13 9 31 12
40 6 16 -3 18 -38 9z"/>
<path d="M1480 1585 c0 -8 9 -15 20 -15 11 0 20 7 20 15 0 8 -9 15 -20 15 -11
0 -20 -7 -20 -15z"/>
<path d="M1745 1514 c-4 -41 -5 -91 -2 -110 5 -32 4 -34 -18 -28 -14 3 -35 5
-47 4 -13 0 -48 -2 -80 -3 -61 -2 -93 -17 -36 -17 20 0 50 -3 67 -6 24 -5 31
-3 31 10 0 9 5 16 11 16 7 0 9 -10 5 -25 -6 -23 16 -95 29 -95 3 0 21 7 41 15
31 13 36 13 41 0 3 -8 10 -15 15 -15 6 0 3 11 -6 25 -16 24 -15 25 14 40 23
12 35 13 51 5 14 -8 17 -15 11 -23 -11 -13 -9 -83 3 -109 14 -34 21 -18 17 40
l-4 58 48 37 c26 20 40 37 32 37 -9 0 -25 14 -36 31 -21 34 -41 24 -22 -12 7
-11 9 -23 6 -26 -2 -3 -37 -9 -76 -13 -52 -6 -78 -14 -95 -30 l-23 -21 -16 22
c-18 27 -18 28 20 32 36 4 74 24 74 39 0 9 -3 9 -12 0 -7 -7 -15 -12 -18 -12
-3 0 -5 47 -5 105 1 58 -2 105 -6 105 -4 0 -10 -34 -14 -76z"/>
<path d="M1363 1498 c2 -7 12 -13 22 -13 10 0 20 6 23 13 2 7 -6 12 -23 12
-17 0 -25 -5 -22 -12z"/>
<path d="M1890 1449 c-19 -10 -47 -18 -62 -19 l-27 0 20 -35 c12 -19 23 -35
26 -35 2 0 8 13 14 28 6 17 26 38 49 51 63 35 44 44 -20 10z"/>
<path d="M860 1403 c0 -3 15 -34 34 -68 23 -42 31 -67 25 -76 -14 -23 -10
-103 6 -126 16 -22 70 -43 113 -43 34 0 18 17 -24 25 -56 10 -80 40 -83 104
l-2 54 49 -37 c27 -20 55 -36 61 -36 12 0 13 81 3 122 -8 32 -22 8 -22 -38 0
-70 -46 -50 -87 39 -28 58 -28 57 -4 57 29 0 34 17 8 24 -30 8 -77 8 -77 -1z"/>
<path d="M1256 1343 c-13 -14 -5 -33 14 -33 11 0 20 6 20 14 0 15 -24 28 -34
19z"/>
<path d="M1366 1334 c-6 -15 2 -24 21 -24 7 0 13 8 13 18 0 21 -27 26 -34 6z"/>
<path d="M2038 1213 c4 -69 -10 -92 -58 -99 -58 -9 -59 -24 -3 -24 42 0 55 4
67 22 23 33 30 82 16 122 -17 52 -25 44 -22 -21z"/>
<path d="M1253 1245 c0 -8 9 -15 19 -15 10 0 18 7 18 15 0 8 -8 15 -18 15 -10
0 -19 -7 -19 -15z"/>
<path d="M1363 1245 c0 -10 8 -15 21 -13 12 2 21 8 21 13 0 6 -9 11 -21 13
-13 2 -21 -3 -21 -13z"/>
<path d="M714 964 c14 -54 39 -96 63 -105 25 -9 27 -29 4 -37 -7 -2 -15 5 -18
17 -4 15 -13 21 -35 21 -25 0 -27 -2 -18 -19 28 -53 120 -85 120 -42 0 11 -5
23 -10 26 -6 4 -8 15 -5 25 3 11 1 37 -5 58 -10 40 -34 62 -79 77 -22 7 -23 5
-17 -21z"/>
<path d="M2232 970 c-36 -22 -53 -57 -50 -104 1 -17 -4 -41 -10 -52 -14 -26
-7 -34 28 -34 30 0 74 30 90 61 9 17 7 19 -18 19 -22 0 -31 -6 -35 -21 -6 -22
-28 -22 -35 0 -2 7 6 15 17 18 22 6 53 56 65 106 8 33 -6 35 -52 7z"/>
<path d="M869 919 c-46 -46 7 -135 68 -113 40 14 44 38 4 29 -38 -8 -61 7 -61
41 0 31 42 53 64 35 10 -8 16 -9 21 -1 21 34 -62 43 -96 9z"/>
<path d="M1010 874 c-35 -77 -34 -74 -16 -74 8 0 18 9 21 20 5 15 15 20 40 20
24 0 34 -5 38 -20 3 -11 12 -20 21 -20 20 0 20 -2 -4 48 -11 23 -25 53 -30 67
-16 43 -39 30 -70 -41z m57 -10 c-3 -3 -12 -4 -20 -2 -11 2 -12 9 -5 28 l10
25 11 -23 c5 -12 8 -25 4 -28z"/>
<path d="M1143 874 l5 -67 46 -4 c36 -3 46 0 46 12 0 11 -10 15 -35 15 l-35 0
0 55 c0 43 -3 55 -16 55 -13 0 -15 -11 -11 -66z"/>
<path d="M1262 874 l3 -66 48 -3 c35 -2 47 1 47 11 0 9 -12 14 -35 14 l-35 0
0 55 c0 43 -3 55 -15 55 -13 0 -15 -12 -13 -66z"/>
<path d="M1380 873 l0 -68 50 -1 c36 -1 50 3 50 12 0 9 -12 14 -35 14 -24 0
-35 5 -35 15 0 10 10 15 30 15 21 0 30 5 30 16 0 12 -7 15 -30 12 -24 -4 -30
-1 -30 14 0 14 8 18 35 18 19 0 35 5 35 10 0 6 -22 10 -50 10 l-50 0 0 -67z"/>
<path d="M1510 870 c0 -56 3 -70 15 -70 11 0 15 12 15 46 l0 47 35 -47 c20
-25 40 -46 45 -46 6 0 10 32 10 70 0 54 -3 70 -14 70 -10 0 -16 -13 -18 -42
l-3 -42 -29 42 c-43 62 -56 56 -56 -28z"/>
<path d="M1670 871 l0 -69 48 4 c113 10 111 134 -3 134 l-45 0 0 -69z m81 39
c21 -12 25 -50 7 -68 -7 -7 -25 -12 -40 -12 -27 0 -28 2 -28 45 0 39 3 45 21
45 11 0 29 -5 40 -10z"/>
<path d="M1826 873 c2 -50 6 -68 15 -68 8 0 14 9 14 19 0 29 22 30 41 2 9 -14
23 -26 30 -26 18 0 18 14 -1 30 -13 11 -13 15 0 33 31 44 6 77 -58 77 l-42 0
1 -67z m79 22 c0 -14 -8 -21 -27 -23 -24 -3 -28 0 -28 23 0 23 4 26 28 23 19
-2 27 -9 27 -23z"/>
<path d="M1970 869 c0 -52 3 -70 13 -67 7 3 13 29 15 71 2 55 0 67 -13 67 -12
0 -15 -14 -15 -71z"/>
<path d="M2040 913 c-21 -27 -21 -63 1 -89 15 -19 55 -25 84 -14 36 14 22 30
-19 23 -28 -4 -36 -1 -46 16 -22 42 21 89 55 61 20 -16 40 -3 24 16 -20 25
-75 17 -99 -13z"/>
</g>
</svg>
